<svg xmlns="http://www.w3.org/2000/svg" viewBox="0 0 64 64" width="64" height="64">
  <!-- Dark background -->
  <rect x="0" y="0" width="64" height="64" rx="12" fill="#0C2A31" />

  <!-- Bat silhouette -->
  <path d="M 32 48 C 16 52, 4 40, 6 24 C 10 30, 16 32, 20 28 C 16 20, 20 8, 28 4 C 26 12, 28 18, 32 22 C 36 18, 38 12, 36 4 C 44 8, 48 20, 44 28 C 48 32, 54 30, 58 24 C 60 40, 48 52, 32 48 Z" fill="#E15525" />

  <!-- Cross / Stake (Van Helsing) -->
  <path d="M 28 12 L 36 12 L 36 42 L 32 58 L 28 42 Z" fill="#D4D6C6" />
  <path d="M 18 24 L 46 24 L 46 30 L 18 30 Z" fill="#D4D6C6" />

  <!-- Cross shadow for depth -->
  <path d="M 32 12 L 36 12 L 36 42 L 32 58 Z" fill="#B0B2A4" />
  <path d="M 32 24 L 46 24 L 46 30 L 32 30 Z" fill="#B0B2A4" />
</svg>
